<svg xmlns="http://www.w3.org/2000/svg" width="142" height="42" viewBox="0 0 142 42">
  <g id="Groupe_61" data-name="Groupe 61" transform="translate(-592 -1374)">
    <path id="Polygone_27" data-name="Polygone 27" d="M18.454,10.365a7,7,0,0,1,12.093,0L42.859,31.473A7,7,0,0,1,36.813,42H12.187A7,7,0,0,1,6.141,31.473Z" transform="translate(592 1374)" fill="#63c6f2"/>
    <path id="Polygone_28" data-name="Polygone 28" d="M18.454,10.365a7,7,0,0,1,12.093,0L42.859,31.473A7,7,0,0,1,36.813,42H12.187A7,7,0,0,1,6.141,31.473Z" transform="translate(654 1374)" fill="#fedab7"/>
    <path id="Polygone_29" data-name="Polygone 29" d="M18.454,10.365a7,7,0,0,1,12.093,0L42.859,31.473A7,7,0,0,1,36.813,42H12.187A7,7,0,0,1,6.141,31.473Z" transform="translate(672 1416) rotate(180)" fill="#f957d0"/>
    <path id="Polygone_30" data-name="Polygone 30" d="M18.454,10.365a7,7,0,0,1,12.093,0L42.859,31.473A7,7,0,0,1,36.813,42H12.187A7,7,0,0,1,6.141,31.473Z" transform="translate(734 1416) rotate(180)" fill="#b4a7d6"/>
  </g>
</svg>
