<svg xmlns="http://www.w3.org/2000/svg" width="235" height="42" viewBox="0 0 235 42">
  <g id="Groupe_58" data-name="Groupe 58" transform="translate(-592 -1316)">
    <path id="Polygone_8" data-name="Polygone 8" d="M18.454,10.365a7,7,0,0,1,12.093,0L42.859,31.473A7,7,0,0,1,36.813,42H12.187A7,7,0,0,1,6.141,31.473Z" transform="translate(592 1316)" fill="#63c6f2"/>
    <path id="Polygone_9" data-name="Polygone 9" d="M18.454,10.365a7,7,0,0,1,12.093,0L42.859,31.473A7,7,0,0,1,36.813,42H12.187A7,7,0,0,1,6.141,31.473Z" transform="translate(654 1316)" fill="#fedab7"/>
    <path id="Polygone_10" data-name="Polygone 10" d="M18.454,10.365a7,7,0,0,1,12.093,0L42.859,31.473A7,7,0,0,1,36.813,42H12.187A7,7,0,0,1,6.141,31.473Z" transform="translate(672 1358) rotate(180)" fill="#f957d0"/>
    <path id="Polygone_12" data-name="Polygone 12" d="M18.454,10.365a7,7,0,0,1,12.093,0L42.859,31.473A7,7,0,0,1,36.813,42H12.187A7,7,0,0,1,6.141,31.473Z" transform="translate(716 1316)" fill="#b6d7a8"/>
    <path id="Polygone_13" data-name="Polygone 13" d="M18.454,10.365a7,7,0,0,1,12.093,0L42.859,31.473A7,7,0,0,1,36.813,42H12.187A7,7,0,0,1,6.141,31.473Z" transform="translate(734 1358) rotate(180)" fill="#b4a7d6"/>
    <path id="Polygone_15" data-name="Polygone 15" d="M18.454,10.365a7,7,0,0,1,12.093,0L42.859,31.473A7,7,0,0,1,36.813,42H12.187A7,7,0,0,1,6.141,31.473Z" transform="translate(778 1316)" fill="#1f1f1f"/>
    <path id="Polygone_16" data-name="Polygone 16" d="M18.454,10.365a7,7,0,0,1,12.093,0L42.859,31.473A7,7,0,0,1,36.813,42H12.187A7,7,0,0,1,6.141,31.473Z" transform="translate(796 1358) rotate(180)" fill="#ffd500"/>
  </g>
</svg>
