<svg xmlns="http://www.w3.org/2000/svg" width="80" height="42" viewBox="0 0 80 42">
  <g id="Groupe_60" data-name="Groupe 60" transform="translate(-1289 -1544)">
    <path id="Polygone_31" data-name="Polygone 31" d="M18.454,10.365a7,7,0,0,1,12.093,0L42.859,31.473A7,7,0,0,1,36.813,42H12.187A7,7,0,0,1,6.141,31.473Z" transform="translate(1369 1586) rotate(180)" fill="#1f1f1f"/>
    <path id="Polygone_32" data-name="Polygone 32" d="M18.454,10.365a7,7,0,0,1,12.093,0L42.859,31.473A7,7,0,0,1,36.813,42H12.187A7,7,0,0,1,6.141,31.473Z" transform="translate(1289 1544)" fill="#ffd500"/>
  </g>
</svg>
