<svg xmlns="http://www.w3.org/2000/svg" width="846" height="377" viewBox="0 0 846 377">
  <g id="Groupe_75" data-name="Groupe 75" transform="translate(-1074)">
    <path id="Rectangle_86" data-name="Rectangle 86" d="M0,0H846a0,0,0,0,1,0,0V150a0,0,0,0,1,0,0H150A150,150,0,0,1,0,0V0A0,0,0,0,1,0,0Z" transform="translate(1074)" fill="#f7f6cf"/>
    <path id="Rectangle_87" data-name="Rectangle 87" d="M0,0H642a0,0,0,0,1,0,0V114a0,0,0,0,1,0,0H114A114,114,0,0,1,0,0V0A0,0,0,0,1,0,0Z" transform="translate(1278 148)" fill="#f7f6cf"/>
    <path id="Rectangle_88" data-name="Rectangle 88" d="M0,0H398a0,0,0,0,1,0,0V117a0,0,0,0,1,0,0H117A117,117,0,0,1,0,0V0A0,0,0,0,1,0,0Z" transform="translate(1522 260)" fill="#f7f6cf"/>
  </g>
</svg>
