<svg xmlns="http://www.w3.org/2000/svg" width="37.756" height="50.341" viewBox="0 0 37.756 50.341">
  <path id="file-arrow-down-solid" d="M6.293,0A6.3,6.3,0,0,0,0,6.293V44.049a6.3,6.3,0,0,0,6.293,6.293H31.463a6.3,6.3,0,0,0,6.293-6.293V15.732H25.171a3.143,3.143,0,0,1-3.146-3.146V0ZM25.171,0V12.585H37.756ZM21.238,22.811V32.85L24.286,29.8a2.357,2.357,0,1,1,3.333,3.333L20.54,40.214a2.35,2.35,0,0,1-3.333,0l-7.079-7.079A2.357,2.357,0,1,1,13.46,29.8l3.048,3.048V22.811a2.36,2.36,0,1,1,4.719,0Z" fill="#f7f6cf"/>
</svg>
