<svg id="Composant_9_10" data-name="Composant 9 – 10" xmlns="http://www.w3.org/2000/svg" width="78.526" height="79.311" viewBox="0 0 78.526 79.311">
  <path id="Tracé_11" data-name="Tracé 11" d="M39.263,0a39.658,39.658,0,0,1,0,79.311A39.658,39.658,0,0,1,39.263,0Z" fill="#f69de0"/>
  <path id="Tracé_7" data-name="Tracé 7" d="M34.7,0a35.052,35.052,0,0,1,0,70.1A35.052,35.052,0,0,1,34.7,0Z" transform="translate(4.56 4.605)" fill="#b6d8f2"/>
  <path id="Tracé_6" data-name="Tracé 6" d="M30,0A29.947,29.947,0,1,1,0,29.947,29.973,29.973,0,0,1,30,0Z" transform="translate(9.263 9.709)" fill="#f4cfdf"/>
  <path id="Intersection_3" data-name="Intersection 3" d="M0,10.953C2.8,4.593,10.836,0,20.314,0S37.829,4.594,40.628,10.953a29.62,29.62,0,0,1-20.314,7.742A29.619,29.619,0,0,1,0,10.953Z" transform="translate(18.949 50.908)" fill="#d2e8ba"/>
  <circle id="Ellipse_52" data-name="Ellipse 52" cx="12" cy="12" r="12" transform="translate(27.263 24.216)" fill="#feece6"/>
</svg>
