<svg xmlns="http://www.w3.org/2000/svg" width="73" height="73" viewBox="0 0 73 73">
  <g id="Groupe_54" data-name="Groupe 54" transform="translate(-45 -175)">
    <g id="Groupe_53" data-name="Groupe 53" transform="translate(-3096.568 1182) rotate(-90)">
      <g id="Ellipse_71" data-name="Ellipse 71" transform="translate(934 3141.568)" fill="none" stroke="#d1c7ec" stroke-width="8">
        <circle cx="36.5" cy="36.5" r="36.5" stroke="none"/>
        <circle cx="36.5" cy="36.5" r="32.5" fill="none"/>
      </g>
    </g>
    <path id="house-solid" d="M53.815,23.879a3.02,3.02,0,0,1-2.991,3H47.833L47.9,41.852a6.859,6.859,0,0,1-.047.757v1.5a3.737,3.737,0,0,1-3.738,3.738h-1.5c-.1,0-.206,0-.308-.009-.131.009-.262.009-.393.009H36.637A3.737,3.737,0,0,1,32.9,44.114V35.889A2.988,2.988,0,0,0,29.908,32.9H23.926a2.988,2.988,0,0,0-2.991,2.991v8.225A3.737,3.737,0,0,1,17.2,47.852H11.972c-.14,0-.28-.009-.421-.019-.112.009-.224.019-.336.019H9.72a3.737,3.737,0,0,1-3.738-3.738V33.646a2.449,2.449,0,0,1,.009-.262v-6.5h-3a2.955,2.955,0,0,1-2.991-3,3.038,3.038,0,0,1,.935-2.243L24.9.748A2.7,2.7,0,0,1,26.954,0a3.1,3.1,0,0,1,1.963.654l23.87,20.982A2.56,2.56,0,0,1,53.815,23.879Z" transform="translate(54.603 184.635)" fill="#d1c7ec"/>
  </g>
</svg>
