<svg xmlns="http://www.w3.org/2000/svg" width="93.714" height="93.714" viewBox="0 0 93.714 93.714">
  <path id="route-solid" d="M93.714,17.571c0,9.188-10.817,22.9-15.485,28.371a2.744,2.744,0,0,1-2.654.915h-17a5.857,5.857,0,0,0,0,11.714H76.143a17.571,17.571,0,0,1,0,35.143H25.552c1.592-1.812,3.533-4.137,5.491-6.736C32.2,85.441,33.386,83.757,34.521,82H76.143a5.857,5.857,0,0,0,0-11.714H58.571a17.571,17.571,0,0,1,0-35.143h7.285c-3.844-5.766-7.285-12.392-7.285-17.571a17.571,17.571,0,0,1,35.143,0ZM21.433,89.523c-.7.787-1.318,1.483-1.849,2.068l-.329.366-.037-.037a2.72,2.72,0,0,1-3.661-.329C10.946,86.576,0,73.672,0,64.429a17.571,17.571,0,0,1,35.143,0c0,5.491-3.862,12.263-7.962,17.919-1.958,2.691-3.972,5.125-5.638,7.047Zm2-25.094a5.857,5.857,0,1,0-5.857,5.857A5.857,5.857,0,0,0,23.429,64.429Zm52.714-41a5.857,5.857,0,1,0-5.857-5.857A5.857,5.857,0,0,0,76.143,23.429Z" fill="#f69de0"/>
</svg>
